<svg xmlns="http://www.w3.org/2000/svg" width="36" height="36" viewBox="0 0 36 36">
    <g fill="none" fill-rule="evenodd">
        <path fill="#4285F4" fill-rule="nonzero" d="M35.28 18.41c0-1.277-.115-2.505-.327-3.683H18v6.963h9.687c-.417 2.25-1.685 4.156-3.592 5.433v4.516h5.818c3.403-3.134 5.367-7.748 5.367-13.23z"/>
        <path fill="#34A853" fill-rule="nonzero" d="M18 36c4.86 0 8.935-1.612 11.913-4.36l-5.818-4.517c-1.611 1.08-3.673 1.718-6.095 1.718-4.688 0-8.656-3.166-10.072-7.421H1.915v4.664C4.876 31.966 10.964 36 18 36z"/>
        <path fill="#FBBC05" fill-rule="nonzero" d="M7.928 21.42A10.82 10.82 0 0 1 7.364 18c0-1.186.204-2.34.564-3.42V9.916H1.915A17.993 17.993 0 0 0 0 18c0 2.905.695 5.654 1.915 8.084l6.013-4.664z"/>
        <path fill="#EA4335" fill-rule="nonzero" d="M18 7.16c2.643 0 5.015.907 6.88 2.69l5.164-5.162C26.926 1.784 22.852 0 18 0 10.964 0 4.876 4.034 1.915 9.916l6.013 4.664C9.344 10.325 13.312 7.16 18 7.16z"/>
        <path d="M0 0h36v36H0z"/>
    </g>
</svg>
