<svg xmlns="http://www.w3.org/2000/svg" width="46" height="46" viewBox="0 0 46 46">
    <path fill="#FFF" fill-rule="evenodd" d="M23 46C10.297 46 0 35.703 0 23S10.297 0 23 0s23 10.297 23 23-10.297 23-23 23zm12.825-34.81a1.45 1.45 0 0 0-2.047.034L19.9 25.536l-.261-.26a.966.966 0 0 0-1.365 0 .956.956 0 0 0-.192 1.074 4.383 4.383 0 0 0-1.516-.284 4.39 4.39 0 0 0-3.1 1.282L9.2 31.607a.682.682 0 0 0 0 .964l.8.799 4.17-3.154-3.159 4.163 1.908 1.904 2.617-1.98-1.982 2.613.88.879c.268.266.7.266.968 0l4.266-4.259a4.36 4.36 0 0 0 1.004-4.604.964.964 0 0 0 .39.09.964.964 0 0 0 .683-1.646l-.26-.26 14.34-13.848.034-.034a1.443 1.443 0 0 0-.034-2.044zM9.57 21.816a.126.126 0 0 0 .04.145.123.123 0 0 0 .148.004l1.948-1.38 2.21.904c.052.02.111.005.145-.038a.123.123 0 0 0 .005-.15l-1.383-1.943.906-2.206a.125.125 0 0 0-.188-.149l-1.948 1.38-2.21-.904a.126.126 0 0 0-.15.188l1.383 1.944-.906 2.205zm20.368 7.846l-1.606-.119-.76-1.417a.124.124 0 0 0-.234.05l-.119 1.602-1.42.758a.125.125 0 0 0 .05.234l1.605.119.76 1.417a.125.125 0 0 0 .136.063.125.125 0 0 0 .099-.112l.119-1.603 1.42-.758a.123.123 0 0 0 .063-.136.124.124 0 0 0-.113-.098zm-11.451-16.12l-.05.891a.125.125 0 0 0 .085.125c.051.018.11 0 .142-.045l.52-.727.893.049a.125.125 0 0 0 .124-.084.124.124 0 0 0-.045-.142l-.728-.518.049-.891a.124.124 0 0 0-.084-.124.124.124 0 0 0-.143.045l-.519.726-.893-.048a.125.125 0 0 0-.124.083c-.019.052 0 .11.045.142l.728.518z"/>
</svg>
