<svg xmlns="http://www.w3.org/2000/svg" xmlns:xlink="http://www.w3.org/1999/xlink" width="93" height="126" viewBox="0 0 93 126">
    <defs>
        <path id="a" d="M0 125.699h93V0H0z"/>
    </defs>
    <g fill="none" fill-rule="evenodd">
        <path stroke="#7E84DB" stroke-width="2.4" d="M71.354 9.533h15.24a5.206 5.206 0 0 1 5.204 5.209v104.545a5.206 5.206 0 0 1-5.203 5.209H6.405a5.206 5.206 0 0 1-5.202-5.209V14.742a5.205 5.205 0 0 1 5.202-5.209H71.353zM31.935 9.533h28.862"/>
        <path stroke="#7E84DB" stroke-width="2.4" d="M31.362 17.862h-8.608a.804.804 0 0 1-.801-.802V2.006c0-.441.36-.802.801-.802h8.608c.44 0 .801.361.801.802V17.06c0 .441-.36.802-.801.802zM70.245 17.862h-8.607a.804.804 0 0 1-.802-.802V2.006c0-.441.361-.802.802-.802h8.607c.441 0 .802.361.802.802V17.06c0 .441-.36.802-.802.802zM1.203 27.813h90.594M1.203 111.278h90.594"/>
        <mask id="b" fill="#fff">
            <use xlink:href="#a"/>
        </mask>
        <path stroke="#7E84DB" stroke-width="2.4" d="M14.82 76.437h13.452V62.972H14.821zM39.763 52.691h13.451V39.226h-13.45zM64.728 52.691h13.451V39.226H64.728zM64.728 75.564h13.451V62.099H64.728zM39.763 97.433h13.451V83.968h-13.45zM64.728 97.433h13.451V83.968H64.728zM28.272 45.402v7.29H14.82V39.226h12.226" mask="url(#b)"/>
        <path stroke="#7E84DB" stroke-width="2.4" d="M17.614 43.767l4.441 4.445 8.976-8.985M53.214 69.148v7.29h-13.45V62.972h12.225" mask="url(#b)"/>
        <path stroke="#7E84DB" stroke-width="2.4" d="M42.557 67.512l4.44 4.446 8.977-8.986M28.272 91.51v7.29H14.82V85.334h12.226" mask="url(#b)"/>
        <path stroke="#7E84DB" stroke-width="2.4" d="M17.614 89.875l4.441 4.445 8.976-8.985" mask="url(#b)"/>
    </g>
</svg>
