<svg xmlns="http://www.w3.org/2000/svg" width="100" height="126" viewBox="0 0 100 126">
    <g fill="none" fill-rule="evenodd" stroke="#7E84DB">
        <path stroke-width="2.4" d="M87.352 47.324v72.903c0 2.398-1.952 4.344-4.361 4.344H5.763c-2.409 0-4.361-1.946-4.361-4.344V5.744c0-2.399 1.952-4.344 4.361-4.344h77.228c2.409 0 4.361 1.945 4.361 4.344v25.744"/>
        <path stroke-width="2.4" d="M26.203 1.4v8.693c0 1.9 1.546 3.44 3.453 3.44h10.726a4.255 4.255 0 0 1 3.995-2.8 4.255 4.255 0 0 1 3.996 2.8h10.725a3.447 3.447 0 0 0 3.453-3.44V1.4H26.203z"/>
        <path stroke-width="2.4" d="M78.14 60.258v53.067H22.58c-6.58 0-11.916-5.314-11.916-11.868v-92.4H78.14V43.77"/>
        <path stroke-width="2.4" d="M10.664 102.825h9.64v10.5M19.166 30.525H59.33M19.166 45.525H69.37M19.166 59.125h28.918M19.166 75.026H62.55"/>
        <path stroke-linecap="round" stroke-linejoin="round" stroke-width="2.4" d="M71.581 69.684l-7.797-5.415L90.82 25.664l7.797 5.415zM61.562 75.716l2.173-11.377 7.797 5.416z"/>
        <path stroke-linecap="round" stroke-linejoin="round" stroke-width="2.4" d="M62.649 70.028l3.898 2.708-4.985 2.98zM86.741 31.487l2.334 1.62 5.463 3.795"/>
        <path stroke-linecap="round" stroke-linejoin="round" stroke-width="1.6" d="M65.821 65.788l23.006-32.852"/>
    </g>
</svg>
