<svg xmlns="http://www.w3.org/2000/svg" xmlns:xlink="http://www.w3.org/1999/xlink" width="154" height="151" viewBox="0 0 154 151">
    <defs>
        <path id="a" d="M1.64.001h-1v12h1V0z"/>
        <path id="c" d="M11.278 1.025v-1H.668v1h10.61z"/>
    </defs>
    <g fill="none" fill-rule="evenodd">
        <path stroke="#7E84DB" stroke-width="3" d="M68.967 130.046l-9.72-7.478c-2.73-2.1-10.048-8.018-17.607-16.544M112.741 104.081a112.684 112.684 0 0 1-4.574 4.4c-10.526 9.575-20.84 15.433-21.981 16.07l-2.537 1.416M133.073 66.677c-1.429 9.86-5.685 19.447-12.723 28.668M119.385 27.932c7.65 6.675 12.833 16.106 13.986 26.73M82.696 18.798a41.846 41.846 0 0 1 9.466-1.083c6.37 0 12.41 1.444 17.807 4.023M45.316 21.151a41.214 41.214 0 0 1 16.522-3.436c3.012 0 5.994.323 8.899.955M20.707 54.004c1.434-11.49 7.59-21.537 16.458-28.127M35.08 97.94c-6.358-8.625-11.945-18.948-13.926-30.183M110.357 36.376c5.51 4.407 9.393 10.767 10.59 18.02M82.969 31.456a29.391 29.391 0 0 1 9.194-1.464c3.296 0 6.467.55 9.425 1.562M57.065 30.383a29.224 29.224 0 0 1 4.773-.39c3.418 0 6.73.582 9.82 1.677M32.933 55.2c1.147-8.4 5.883-15.674 12.608-20.22M43.43 88.495c-4.76-6.842-8.75-14.668-10.191-22.882M69.205 114.739l-2.47-1.9c-1.676-1.29-9.618-7.58-17.413-16.728M104.879 94.55a98.333 98.333 0 0 1-4.975 4.85c-6.52 5.931-13.04 10.332-16.705 12.631M120.67 66.394c-1.236 6.682-4.186 13.296-8.829 19.797M109.06 59.166c0-9.332-7.566-16.897-16.898-16.897-6.654 0-12.407 3.848-15.162 9.44-2.754-5.592-8.508-9.44-15.163-9.44-9.332 0-16.896 7.565-16.896 16.897 0 21.413 29.28 43.942 29.28 43.942s34.838-19.456 34.838-43.942zM76.64 142.332V151M76.64 110.55v27.116M76.64 17.715v21.951"/>
        <g transform="translate(76 -.001)">
            <mask id="b" fill="#fff">
                <use xlink:href="#a"/>
            </mask>
            <path stroke="#7E84DB" stroke-width="3" d="M.64 0v12" mask="url(#b)"/>
        </g>
        <path stroke="#7E84DB" stroke-width="3" d="M13 61.024H0M38 61.024H17.669M137 61.024h-22.666"/>
        <g transform="translate(142 60.999)">
            <mask id="d" fill="#fff">
                <use xlink:href="#c"/>
            </mask>
            <path stroke="#7E84DB" stroke-width="3" d="M11.278.025H.668" mask="url(#d)"/>
        </g>
        <path stroke="#7E84DB" stroke-width="3" d="M26.172 8.164l-5.17-5.171M56.174 38.166L29.505 11.497M124.028 106.02l-20.19-20.191M136.044 118.035l-7.37-7.368M21.677 118.379l-4.009 4.008M52.287 87.769l-25.839 25.838M125.528 14.527l-25.167 25.167M135.25 4.805l-5.721 5.722"/>
    </g>
</svg>
